<svg version="1.1" id="Layer_1" xmlns="http://www.w3.org/2000/svg" xmlns:xlink="http://www.w3.org/1999/xlink" x="0px" y="0px"
	 width="100%" viewBox="320 88 384 384" xml:space="preserve">
<path fill="#7C3AED" opacity="1.000000" stroke="none" 
	d="
M399.423920,390.378540 
	C417.116089,381.735809 434.455658,373.224335 451.841217,364.807892 
	C461.203278,360.275726 469.844299,354.875427 477.099365,347.216736 
	C483.966125,339.967957 490.738007,332.667206 497.346832,324.821503 
	C494.337250,320.372711 489.876465,317.936249 486.084991,314.862152 
	C482.284821,311.781036 480.672821,308.424011 480.722015,303.359436 
	C480.989014,275.869202 480.847382,248.375076 480.865356,220.882294 
	C480.869598,214.395905 481.169983,214.222504 487.323425,215.713730 
	C511.452728,221.561325 532.748413,232.618927 550.931519,249.676239 
	C556.965759,255.336914 563.717896,259.809906 572.783691,258.801971 
	C579.017517,258.108917 584.069946,255.034851 589.102539,251.760056 
	C595.519592,247.584381 601.291199,242.481293 608.043030,238.773834 
	C626.007935,228.909134 641.743652,231.304932 655.822021,246.314011 
	C658.441162,249.106277 661.457092,250.795853 665.098633,251.810043 
	C673.598633,254.177353 678.173645,256.559662 680.763428,259.598663 
	C680.322632,260.631195 679.405457,261.050507 678.421021,261.272736 
	C654.207581,266.738495 641.750427,284.362274 632.416748,305.408600 
	C624.558716,323.127594 613.959839,338.895935 598.775391,351.328278 
	C581.694702,365.313202 561.790833,372.840118 540.491638,377.253998 
	C528.768433,379.683411 517.052856,382.177002 505.268188,384.272736 
	C496.566681,385.820190 489.652649,390.165955 482.990356,395.754517 
	C456.452057,418.015869 429.673462,439.990875 402.960144,462.043182 
	C402.039459,462.803253 401.290436,464.273468 398.975616,463.192871 
	C413.810791,441.044250 428.564392,419.017334 444.263092,395.579437 
	C411.379883,403.022949 379.845642,410.161072 348.311432,417.299194 
	C348.101257,416.780731 347.891083,416.262268 347.680908,415.743805 
	C364.817444,407.345673 381.953979,398.947540 399.423920,390.378540 
z"/>
<path fill="#7C3AED" opacity="1.000000" stroke="none" 
	d="
M556.083496,239.938507 
	C538.460327,223.386276 517.978516,212.715744 495.181427,206.297394 
	C492.174469,205.450806 490.267822,203.788712 489.067627,200.990051 
	C479.669037,179.073792 474.759918,156.108353 472.622559,132.432571 
	C471.601257,121.119530 471.209045,109.857658 472.669952,98.572960 
	C472.791351,97.635223 472.448364,96.529778 473.646484,95.851387 
	C475.546234,95.790421 476.382751,97.459129 477.457733,98.594597 
	C502.755341,125.314850 528.073730,152.015869 553.259216,178.841629 
	C565.688782,192.080704 573.504822,208.007523 579.273926,225.047150 
	C580.607910,228.987045 581.880066,232.960236 583.474731,236.795883 
	C584.903259,240.231934 583.842957,242.318237 580.908020,244.316116 
	C573.012390,249.691025 568.044312,249.640381 560.587341,243.671082 
	C559.157654,242.526642 557.764526,241.336502 556.083496,239.938507 
z"/>
<path fill="#7C3AED" opacity="1.000000" stroke="none" 
	d="
M401.372406,196.000092 
	C401.372894,221.928909 401.372894,247.357697 401.372894,273.587921 
	C393.366486,272.436066 386.581512,269.688538 380.004456,266.352997 
	C378.443054,265.561157 378.687927,263.783936 378.687500,262.302643 
	C378.676239,223.865417 378.688385,185.428162 378.657410,146.990967 
	C378.654633,143.548019 380.236450,141.540970 383.605957,141.373413 
	C387.915863,141.159134 392.255219,141.055145 396.557648,141.311127 
	C400.649200,141.554535 401.411530,144.514679 401.395935,148.077774 
	C401.326660,163.884933 401.369598,179.692612 401.372406,196.000092 
z"/>
<path fill="#7C3AED" opacity="1.000000" stroke="none" 
	d="
M435.906891,177.165466 
	C435.909821,212.886307 435.909821,248.130798 435.909821,284.221771 
	C427.876221,282.524963 420.997772,280.342194 414.256256,277.712250 
	C412.583588,277.059723 412.680054,275.326233 412.679840,273.812195 
	C412.675568,240.005524 412.693420,206.198807 412.645691,172.392197 
	C412.640076,168.422867 414.507721,166.520493 418.336212,166.417404 
	C422.318298,166.310181 426.316101,166.081238 430.283295,166.312607 
	C434.704559,166.570480 435.844971,168.910507 435.906891,177.165466 
z"/>
<path fill="#7C3AED" opacity="1.000000" stroke="none" 
	d="
M470.179810,234.000000 
	C470.180389,256.389099 470.180389,278.278168 470.180389,300.454712 
	C466.020477,300.388123 464.064270,297.812805 461.543304,296.465302 
	C458.758850,294.976959 456.245850,292.857056 453.333069,291.759308 
	C447.997314,289.748383 446.479187,286.349609 446.557922,280.696625 
	C446.891541,256.738007 446.684174,232.772018 446.701355,208.808746 
	C446.706451,201.711655 447.729431,200.712479 454.772675,200.645096 
	C457.767853,200.616425 460.764374,200.663422 463.758423,200.595596 
	C468.554565,200.487000 470.196625,203.204483 470.186249,207.539886 
	C470.165558,216.193222 470.179565,224.846619 470.179810,234.000000 
z"/>
<path fill="#7C3AED" opacity="1.000000" stroke="none" 
	d="
M352.626587,253.419434 
	C346.212463,250.483185 344.324646,245.836029 344.526550,239.183243 
	C344.975189,224.400589 344.650391,209.594925 344.675354,194.798706 
	C344.685852,188.585098 346.010010,187.210419 352.266357,187.080795 
	C369.367920,186.726501 367.367279,187.446457 367.376862,201.795425 
	C367.388611,219.417923 367.399872,237.040421 367.374481,254.662872 
	C367.371887,256.446655 367.826965,258.324158 366.439880,260.411957 
	C361.506805,259.148865 357.331573,256.146484 352.626587,253.419434 
z"/>
</svg>